<svg width="116" height="119" viewBox="0 0 116 119" fill="none" xmlns="http://www.w3.org/2000/svg">
<g filter="url(#filter0_d)">
<path fill-rule="evenodd" clip-rule="evenodd" d="M86.5926 38.72L85.5075 36.4374C83.0428 31.2531 79.5337 27.3546 74.966 24.614L74.9433 24.6003L74.9207 24.5864C70.3514 21.7617 64.9553 20.288 58.592 20.288C52.2328 20.288 46.5941 21.7609 41.5812 24.6497L41.5717 24.6552L41.5621 24.6607C36.6965 27.429 32.796 31.4643 29.8617 36.8974C27.053 42.1787 25.584 48.422 25.584 55.744C25.584 63.0605 27.0508 69.2999 29.8554 74.5787C32.7822 79.9075 36.6837 83.9588 41.5721 86.8328C46.5833 89.6275 52.2265 91.056 58.592 91.056C67.5237 91.056 74.5729 88.4143 80.069 83.3345C84.6579 79.0933 87.7445 73.5533 89.2093 66.512H49.84V47.856H111.84V62.1216L111.823 62.3065C110.996 71.1899 108.198 79.3864 103.435 86.8416L103.428 86.8523L103.421 86.863C98.6455 94.2339 92.3524 100.106 84.5944 104.45L84.5766 104.46L84.5587 104.47C76.7258 108.752 68.0419 110.864 58.592 110.864C48.6335 110.864 39.456 108.546 31.143 103.87L31.1265 103.861L31.1101 103.852C22.8125 99.0805 16.2149 92.4769 11.3562 84.1035L11.3469 84.0874L11.3378 84.0713C6.5479 75.637 4.192 66.1609 4.192 55.744C4.192 45.3271 6.5479 35.851 11.3378 27.4167L11.3417 27.4098L11.3456 27.4029C16.2021 18.9299 22.806 12.3111 31.1265 7.62695C39.4403 2.85036 48.624 0.479996 58.592 0.479996C69.9381 0.479996 80.1132 3.30095 88.9804 9.03615C97.9833 14.7965 104.509 22.9243 108.543 33.2666L110.669 38.72H86.5926ZM86.816 12.4C78.656 7.12 69.248 4.48 58.592 4.48C49.28 4.48 40.784 6.68799 33.104 11.104C25.424 15.424 19.328 21.52 14.816 29.392C10.4 37.168 8.192 45.952 8.192 55.744C8.192 65.536 10.4 74.32 14.816 82.096C19.328 89.872 25.424 95.968 33.104 100.384C40.784 104.704 49.28 106.864 58.592 106.864C67.424 106.864 75.44 104.896 82.64 100.96C89.84 96.928 95.648 91.504 100.064 84.688C104.48 77.776 107.072 70.192 107.84 61.936V51.856H53.84V62.512H93.872C93.7269 63.8843 93.5318 65.2177 93.2869 66.512C91.7501 74.6343 88.2491 81.2209 82.784 86.272C76.448 92.128 68.384 95.056 58.592 95.056C51.584 95.056 45.248 93.472 39.584 90.304C34.016 87.04 29.6 82.432 26.336 76.48C23.168 70.528 21.584 63.616 21.584 55.744C21.584 47.872 23.168 40.96 26.336 35.008C29.6 28.96 34.016 24.352 39.584 21.184C45.248 17.92 51.584 16.288 58.592 16.288C65.6 16.288 71.744 17.92 77.024 21.184C82.304 24.352 86.336 28.864 89.12 34.72H104.816C104.279 33.3422 103.695 32.0088 103.065 30.72C99.3033 23.0289 93.8871 16.9222 86.816 12.4Z" fill="white"/>
</g>
<defs>
<filter id="filter0_d" x="0.192001" y="0.479996" width="115.648" height="118.384" filterUnits="userSpaceOnUse" color-interpolation-filters="sRGB">
<feFlood flood-opacity="0" result="BackgroundImageFix"/>
<feColorMatrix in="SourceAlpha" type="matrix" values="0 0 0 0 0 0 0 0 0 0 0 0 0 0 0 0 0 0 127 0"/>
<feOffset dy="4"/>
<feGaussianBlur stdDeviation="2"/>
<feColorMatrix type="matrix" values="0 0 0 0 0 0 0 0 0 0 0 0 0 0 0 0 0 0 0.25 0"/>
<feBlend mode="normal" in2="BackgroundImageFix" result="effect1_dropShadow"/>
<feBlend mode="normal" in="SourceGraphic" in2="effect1_dropShadow" result="shape"/>
</filter>
</defs>
</svg>
